<?xml version="1.0" encoding="UTF-8" standalone="no"?>
<!-- Created with Inkscape (http://www.inkscape.org/) -->

<svg
   width="7437.1753mm"
   height="8371.876mm"
   viewBox="0 0 7437.1755 8371.8759"
   version="1.1"
   id="svg1"
   xml:space="preserve"
   inkscape:version="1.4.2 (f4327f4, 2025-05-13)"
   sodipodi:docname="cresca.svg"
   xmlns:inkscape="http://www.inkscape.org/namespaces/inkscape"
   xmlns:sodipodi="http://sodipodi.sourceforge.net/DTD/sodipodi-0.dtd"
   xmlns="http://www.w3.org/2000/svg"
   xmlns:svg="http://www.w3.org/2000/svg"><sodipodi:namedview
     id="namedview1"
     pagecolor="#ffffff"
     bordercolor="#000000"
     borderopacity="0.25"
     inkscape:showpageshadow="2"
     inkscape:pageopacity="0.0"
     inkscape:pagecheckerboard="0"
     inkscape:deskcolor="#d1d1d1"
     inkscape:document-units="mm"
     showguides="true"
     inkscape:zoom="0.01"
     inkscape:cx="33050"
     inkscape:cy="21550"
     inkscape:window-width="1920"
     inkscape:window-height="991"
     inkscape:window-x="-9"
     inkscape:window-y="-9"
     inkscape:window-maximized="1"
     inkscape:current-layer="layer1" /><defs
     id="defs1" /><g
     inkscape:label="Layer 1"
     inkscape:groupmode="layer"
     id="layer1"
     transform="translate(19818.296,6286.8779)"><path
       style="fill:#000000"
       d="m -16200.104,2075.39 c -935.745,-77.1585 -1877.286,-551.8868 -2524.529,-1272.87735 -1011.431,-1126.67363 -1349.409,-2671.45635 -895.914,-4094.91535 91.642,-287.6504 354.312,-840.2677 507.893,-1068.5285 623.372,-926.4893 1465.81,-1534.0561 2497.547,-1801.2319 409.499,-106.0426 714.091,-137.4369 1167.351,-120.3187 949.648,35.8653 1791.658,372.3653 2527.394,1010.0458 196.939,170.6916 535.836,551.3001 535.889,601.8459 0.01,11.788 -82.761,100.841 -183.942,197.8956 -101.181,97.0546 -323.303,310.2205 -493.605,473.702 -170.302,163.4815 -319.038,297.249 -330.525,297.261 -11.486,0.012 -106.414,-86.471 -210.95,-192.1846 -481.479,-486.9022 -1050.589,-789.9164 -1635.113,-870.5917 -1329.644,-183.516 -2567.865,613.0967 -2985.234,1920.5586 -214.626,672.3408 -144.21,1458.0812 184.922,2063.45931 318.738,586.25897 877.92,1072.7393 1452.072,1263.28116 351.97,116.80722 555.009,132.84944 1502.8,118.73718 474.973,-7.07217 889.703,-18.22965 921.623,-24.79441 111.019,-22.8326 115.519,-117.2504 17.63,-369.92671 -103.452,-267.039497 -106.159,-289.904236 -38.608,-326.14744 85.192,-45.70818 89.128,-138.35108 12.143,-285.80511 -192.462,-368.63612 -610.358,-875.88378 -914.469,-1109.99528 -122.73,-94.4809 -152.859,-107.1288 -207.439,-87.0828 -35.12,12.8986 -82.795,55.0341 -105.944,93.6343 l -42.09,70.1822 295.472,285.1524 c 318.722,307.59052 538.159,585.38152 689.408,872.74089 135.283,257.026285 133.337,262.798654 -88.625,262.800035 -576.477,0.0036 -1122.876,-222.502865 -1550.865,-631.549075 -408.627,-390.54085 -658.952,-827.26055 -806.788,-1407.53365 -74.674,-293.1006 -116.309,-815.2523 -88.331,-1107.7633 l 23.082,-241.3243 177.791,-8.1583 c 523.305,-24.0127 1359.85,166.1687 1791.128,407.1974 650.947,363.7954 1038.013,827.6394 1237.314,1482.7425 59.279,194.8526 68.186,269.4572 70.593,591.28505 2.916,389.98105 -20.297,534.93434 -126.988,792.9688 l -60.035,145.1982696 66.62,235.7950304 c 108.685,384.68209 32.512,350.13084 770.209,349.35761 l 631.97,-0.66242 17.014,260.33231 c 9.358,143.18276 13.659,471.60625 9.559,729.82985 l -7.455,469.4976 -101.581,18.1032 c -98.374,17.5317 -3503.499,24.6817 -3708.394,7.7869 z"
       id="path1"
       sodipodi:nodetypes="sssssssssssssssssssssssscsssssscssssscsscsscss" /></g></svg>
