<?xml version="1.0" encoding="UTF-8" standalone="no"?>
<!-- Created with Inkscape (http://www.inkscape.org/) -->

<svg
   width="31616.006mm"
   height="8487.1758mm"
   viewBox="0 0 31616.006 8487.1757"
   version="1.1"
   id="svg1"
   xml:space="preserve"
   inkscape:version="1.4.2 (f4327f4, 2025-05-13)"
   sodipodi:docname="logo.svg"
   xmlns:inkscape="http://www.inkscape.org/namespaces/inkscape"
   xmlns:sodipodi="http://sodipodi.sourceforge.net/DTD/sodipodi-0.dtd"
   xmlns="http://www.w3.org/2000/svg"
   xmlns:svg="http://www.w3.org/2000/svg"><sodipodi:namedview
     id="namedview1"
     pagecolor="#ffffff"
     bordercolor="#000000"
     borderopacity="0.25"
     inkscape:showpageshadow="2"
     inkscape:pageopacity="0.0"
     inkscape:pagecheckerboard="0"
     inkscape:deskcolor="#d1d1d1"
     inkscape:document-units="mm"
     showguides="true"
     inkscape:zoom="0.01"
     inkscape:cx="51150"
     inkscape:cy="21550"
     inkscape:window-width="1920"
     inkscape:window-height="991"
     inkscape:window-x="-9"
     inkscape:window-y="-9"
     inkscape:window-maximized="1"
     inkscape:current-layer="layer1" /><defs
     id="defs1" /><g
     inkscape:label="Layer 1"
     inkscape:groupmode="layer"
     id="layer1"
     transform="translate(19818.296,6286.8779)"><path
       style="fill:#000000"
       d="m -6446.3952,2173.8655 c -797.5968,-132.1484 -1493.4237,-579.994 -1951.3444,-1255.91714 -592.383,-874.399039 -653.2555,-2041.27936 -159.7687,-3062.64696 330.8135,-684.6833 890.3779,-1188.4562 1594.0041,-1435.0737 1321.9559,-463.339 2723.2873,147.5663 3332.2405,1452.678 223.7969,479.6428 299.2319,878.844 288.4229,1526.33064 l -7.2085,431.80778 -2025.642,8.62526 c -1114.1031,4.74389 -2025.6365,13.94593 -2025.6296,20.44898 0.058,55.081343 143.4198,309.81255 245.9726,437.05354 160.067,198.60091 330.0063,339.08945 527.4255,436.02164 214.1779,105.16068 367.1708,136.58208 662.7604,136.11647 407.3545,-0.64166 751.075,-144.06088 1069.1176,-446.0951 109.1646,-103.6699 202.5924,-171.66244 235.9275,-171.69738 36.3729,-0.0381 182.7215,121.89074 429.2245,357.60394 205.7185,196.71399 383.6552,374.52053 395.4148,395.12563 41.7061,73.0773 -10.0926,155.13 -235.2267,372.6156 -370.7469,358.1515 -830.0702,618.8975 -1308.9465,743.055 -313.2879,81.2257 -764.4075,104.0399 -1066.744,53.9478 z m 1647.9044,-3552.7673 c 9.7612,-9.7251 -30.1886,-116.4541 -88.7774,-237.1756 -330.3255,-680.6312 -1101.9092,-954.5003 -1790.4368,-635.5047 -297.1055,137.6492 -566.4404,420.3822 -689.3462,723.6377 l -58.3856,144.0596 995.6687,11.6564 c 1325.5341,15.5181 1610.1723,14.3537 1631.2773,-6.6734 z m 8296.213,3564.3119 c -20.9593,-4.0836 -123.8473,-21.2094 -228.64,-38.0573 C 2160.2014,1969.0741 1203.8158,1096.6288 933.40064,16.670037 821.90604,-428.60672 814.40787,-1008.0539 914.52738,-1441.8263 c 228.80502,-991.3081 935.68252,-1789.708 1891.35332,-2136.2347 888.5383,-322.1844 1953.9172,-174.3278 2734.941,379.5637 86.107,61.066 245.2313,194.5029 353.6096,296.5265 169.3857,159.454 194.837,194.3598 181.2791,248.6196 -8.6747,34.7171 -161.7647,205.954 -340.1999,380.5265 -409.106,400.2497 -504.7594,481.9738 -564.1959,482.0361 -26.2201,0.028 -177.3519,-78.148 -335.8484,-173.7233 -359.6696,-216.8851 -572.6469,-302.0068 -838.2511,-335.0281 -721.5068,-89.7012 -1368.9413,327.3979 -1622.2104,1045.0827 -48.388,137.1161 -58.5283,219.0743 -59.7175,482.66285 -1.2843,284.65657 5.7275,337.05292 67.7804,506.4966 184.2849,503.21384 606.063,875.0104 1113.1143,981.20812 474.1302,99.30265 1047.1259,-46.24671 1423.8792,-361.68632 57.4515,-48.10168 124.7259,-87.47884 149.4987,-87.5048 24.7729,-0.026 147.3983,105.57305 272.5011,234.66449 543.2653,560.58646 643.8053,675.33146 643.8677,734.83736 0.045,43.0713 -51.3695,103.0322 -183.9253,214.4979 -578.7557,486.6738 -1282.6396,751.2585 -1981.321,744.7639 -156.6688,-1.4563 -302.0008,-5.989 -322.9601,-10.0727 z m 4606.0496,-27.4803 c -555.377,-104.9665 -1113.7817,-419.5376 -1522.0859,-857.4501 -264.7478,-283.946 -622.5348,-854.23319 -589.7305,-939.98854 7.925,-20.7169 112.3336,-89.89183 232.0193,-153.72207 255.2574,-136.13275 451.5202,-284.087693 661.2577,-498.49654 83.2935,-85.14861 170.5875,-154.83573 193.9868,-154.86026 28.7228,-0.0301 64.439,54.4824 109.9405,167.79866 315.7504,786.34069 1129.3699,1223.83414 1905.3178,1024.51335 288.9414,-74.22154 481.6695,-186.22024 703.5745,-408.86329 850.676,-853.50582 509.405,-2321.61901 -622.7238,-2678.89121 -375.2152,-118.4088 -787.8833,-88.9294 -1294.7935,92.4947 -194.263,69.5271 -290.8481,92.6126 -320.7307,76.6602 -47.2909,-25.2455 -687.843,-716.5609 -782.2521,-844.2448 -32.7611,-44.3079 -59.5815,-95.7334 -59.6009,-114.279 -0.095,-90.8132 703.4709,-456.029 1078.9135,-560.0557 235.7813,-65.3297 287.5047,-70.3252 723.8271,-69.908 438.3625,0.419 485.2485,5.1091 698.5736,69.8791 370.8187,112.5884 689.3012,277.4957 922.1348,477.4727 45.93,39.4486 93.16,71.7145 104.955,71.7021 11.796,-0.012 31.296,-100.0453 43.334,-222.2955 l 21.886,-222.2731 146.051,0.7541 c 80.328,0.4147 414.709,2.9217 743.067,5.5711 l 597.017,4.8171 -3.513,2813.05521 -3.512,2813.05519 -736.6,0.7721 -736.599,0.7721 -13.03,-314.605 -13.03,-314.6049 -123.768,111.5482 c -335.7605,302.6099 -605.5198,457.9688 -993.1158,571.9521 -281.0841,82.6606 -779.649,106.7421 -1070.7704,51.72 z m -9876.5974,-15.4576 c -532.4903,-121.7023 -970.5003,-370.7496 -1416.8952,-805.6298 -129.1534,-125.8219 -197.0718,-211.4501 -197.1106,-248.5076 -0.041,-39.4579 123.7181,-178.57324 409.6468,-460.47493 225.3384,-222.16469 422.3491,-403.94906 437.8017,-403.96525 15.4525,-0.0162 115.8737,78.75247 223.1583,175.0415 340.5057,305.6074 572.1455,438.55473 846.9871,486.11956 276.501,47.85201 572.03012,-4.05464 707.37215,-124.24264 143.41829,-127.35996 173.83147,-382.08028 66.61956,-557.96062 C -800.93604,29.468372 -952.53125,-40.960444 -1610.2042,-222.22324 -2632.5227,-503.9869 -3088.418,-995.80795 -3152.8577,-1886.442 c -35.9249,-496.5252 139.7076,-961.1268 499.7094,-1321.8841 213.6283,-214.0766 575.968,-401.8616 925.0361,-479.4062 474.4271,-105.3928 1050.06267,-57.0768 1444.42588,121.2379 303.457177,137.2108 643.3323,412.1801 784.58018,634.7494 46.85542,73.8317 47.61623,84.1561 10.39701,141.0899 -73.52623,112.4723 -627.91579,713.1757 -666.18144,721.8345 -20.72046,4.6886 -135.26048,-56.9318 -254.53338,-136.9343 -310.18343,-208.056 -479.37192,-271.2436 -761.33725,-284.3398 -457.2661,-21.2383 -695.8574,127.1352 -695.2721,432.3709 0.4258,222.0329 170.0582,379.1694 526.9084,488.094 1115.37611,340.4564 1317.302434,430.1317 1597.02406,709.2373 193.26197,192.83633 319.06349,415.98466 407.19914,722.29499 61.8905,215.096808 67.33582,266.81628 56.15325,533.34142 -9.62452,229.39067 -27.6042,340.43308 -80.70243,498.41794 C 435.95348,1502.4018 -31.62331,1924.236 -718.37436,2119.6432 c -194.17865,55.2513 -850.42774,69.4592 -1054.45124,22.829 z M -16200.104,2075.39 c -935.745,-77.1585 -1877.286,-551.8868 -2524.529,-1272.87735 -1011.431,-1126.67363 -1349.409,-2671.45635 -895.914,-4094.91535 91.642,-287.6504 354.312,-840.2677 507.893,-1068.5285 623.372,-926.4893 1465.81,-1534.0561 2497.547,-1801.2319 409.499,-106.0426 714.091,-137.4369 1167.351,-120.3187 949.648,35.8653 1791.658,372.3653 2527.394,1010.0458 196.939,170.6916 535.836,551.3001 535.889,601.8459 0.01,11.788 -82.761,100.841 -183.942,197.8956 -101.181,97.0546 -323.303,310.2205 -493.605,473.702 -170.302,163.4815 -319.038,297.249 -330.525,297.261 -11.486,0.012 -106.414,-86.471 -210.95,-192.1846 -481.479,-486.9022 -1050.589,-789.9164 -1635.113,-870.5917 -1329.644,-183.516 -2567.865,613.0967 -2985.234,1920.5586 -214.626,672.3408 -144.21,1458.0812 184.922,2063.45931 318.738,586.25897 877.92,1072.7393 1452.072,1263.28116 351.97,116.80722 555.009,132.84944 1502.8,118.73718 474.973,-7.07217 889.703,-18.22965 921.623,-24.79441 111.019,-22.8326 115.519,-117.2504 17.63,-369.92671 -103.452,-267.039497 -106.159,-289.904236 -38.608,-326.14744 85.192,-45.70818 89.128,-138.35108 12.143,-285.80511 -192.462,-368.63612 -610.358,-875.88378 -914.469,-1109.99528 -122.73,-94.4809 -152.859,-107.1288 -207.439,-87.0828 -35.12,12.8986 -82.795,55.0341 -105.944,93.6343 l -42.09,70.1822 295.472,285.1524 c 318.722,307.59052 538.159,585.38152 689.408,872.74089 135.283,257.026285 133.337,262.798654 -88.625,262.800035 -576.477,0.0036 -1122.876,-222.502865 -1550.865,-631.549075 -408.627,-390.54085 -658.952,-827.26055 -806.788,-1407.53365 -74.674,-293.1006 -116.309,-815.2523 -88.331,-1107.7633 l 23.082,-241.3243 177.791,-8.1583 c 523.305,-24.0127 1359.85,166.1687 1791.128,407.1974 650.947,363.7954 1038.013,827.6394 1237.314,1482.7425 59.279,194.8526 68.186,269.4572 70.593,591.28505 2.916,389.98105 -20.297,534.93434 -126.988,792.9688 l -60.035,145.1982696 66.62,235.7950304 c 108.685,384.68209 32.512,350.13084 770.209,349.35761 l 631.97,-0.66242 17.014,260.33231 c 9.358,143.18276 13.659,471.60625 9.559,729.82985 l -7.455,469.4976 -101.581,18.1032 c -98.374,17.5317 -3503.499,24.6817 -3708.394,7.7869 z m 4246.031,-4.3595 c -9.323,-9.3036 -18.273,-1278.02487 -19.888,-2819.38066 l -2.938,-2802.46504 736.6,-0.7721 736.6,-0.7721 4.247,234.9457 c 2.336,129.2201 3.732,249.2337 3.102,266.6968 -0.63,17.4632 3.221,31.7467 8.558,31.7411 5.337,-0.01 114.617,-79.1845 242.844,-175.953 283.7531,-214.1389 612.1288,-390.6729 832.6152,-447.6119 90.374,-23.3384 273.232,-44.438 406.3511,-46.8879 l 242.0348,-4.4545 7.5105,722.2191 c 4.1308,397.2204 -1.2346,730.772 -11.923,741.2257 -10.6885,10.4538 -139.435,32.0485 -286.1034,47.9884 -549.9173,59.7649 -847.5362,165.0886 -1074.6012,380.2882 -74.631,70.7317 -165.137,183.0502 -201.124,249.5966 -139.658,258.2528 -143.027,301.6795 -147.3,1899.08029 -2.167,810.26271 -8.725,1533.21751 -14.572,1606.56611 l -10.632,133.3612 -717.215,0.7518 c -394.468,0.4135 -724.843,-6.8602 -734.166,-16.1638 z M 5311.4199,-107.40324 c -202.7575,-49.17033 -190.0569,-392.43173 30.8069,-832.62181 112.9048,-225.02375 414.0322,-532.61475 615.3619,-628.57045 285.8185,-136.224 668.1947,-200.8093 914.2386,-154.4195 l 114.3226,21.5547 -3.8548,163.9389 c -7.3974,314.603 -223.1851,772.58681 -490.2594,1040.51791 -163.4562,163.98048 -433.3327,313.98837 -662.557,368.27492 -155.6103,36.852763 -410.7263,47.354339 -518.0588,21.32533 z"
       id="path1"
       sodipodi:nodetypes="sssssscsssssssssssssssscssssssssssssssssssssssssssssssssssssssssssssscsscccccccsssssssssssssssssssssssssssssssssssssssssssssssssssssscsssssscssssscsscsscsssscccsssssscssssssscsssssscssss" /></g></svg>
